<?xml version="1.0" encoding="utf-8"?>
<!-- Generator: Adobe Illustrator 23.0.0, SVG Export Plug-In . SVG Version: 6.00 Build 0)  -->
<svg version="1.1" id="Capa_1" xmlns="http://www.w3.org/2000/svg" xmlns:xlink="http://www.w3.org/1999/xlink" x="0px" y="0px"
	 viewBox="0 0 18.9 18.9" style="enable-background:new 0 0 18.9 18.9;" xml:space="preserve">
<g>
	<path class="st0" d="M8.7,10.6l8.3,6.6c0.4,0.2,0.9,0.2,1.3-0.1c0.4-0.2,0.6-0.6,0.6-1.1V2.9c0-0.4-0.2-0.9-0.6-1.1
		c-0.2-0.1-0.4-0.2-0.7-0.2c-0.2,0-0.4,0-0.6,0.1L8.7,8.3C8.3,8.7,8,9,8,9.5S8.3,10.2,8.7,10.6z"/>
	<path class="st0" d="M0.7,10.6L9,17.2c0.4,0.2,0.9,0.2,1.3-0.1c0.4-0.2,0.6-0.6,0.6-1.1V2.9c0-0.4-0.2-0.9-0.6-1.1
		c-0.2-0.1-0.4-0.2-0.7-0.2c-0.2,0-0.4,0-0.6,0.1L0.7,8.3C0.3,8.7,0,9,0,9.5S0.3,10.2,0.7,10.6z"/>
</g>
</svg>
